HIERARCHY
ROOT Hips
{
  OFFSET 2.26061 22.2878 23.7974
  CHANNELS 6 Xposition Yposition Zposition Zrotation Xrotation Yrotation
  JOINT LeftUpLeg
  {
    OFFSET 8.64259 1.95398 -2.38835
    CHANNELS 3 Zrotation Xrotation Yrotation
    JOINT LeftLeg
    {
      OFFSET 43.7702 0 0
      CHANNELS 3 Zrotation Xrotation Yrotation
      JOINT LeftFoot
      {
        OFFSET 40.6238 0 0
        CHANNELS 3 Zrotation Xrotation Yrotation
        JOINT LeftToeBase
        {
          OFFSET 12.7242 0 0
          CHANNELS 3 Zrotation Xrotation Yrotation
          End Site
          {
            OFFSET 0 0 0
          }
        }
      }
    }
  }
  JOINT RightUpLeg
  {
    OFFSET -8.2249 1.95398 -2.59336
    CHANNELS 3 Zrotation Xrotation Yrotation
    JOINT RightLeg
    {
      OFFSET 43.5653 0 0
      CHANNELS 3 Zrotation Xrotation Yrotation
      JOINT RightFoot
      {
        OFFSET 40.6238 0 0
        CHANNELS 3 Zrotation Xrotation Yrotation
        JOINT RightToeBase
        {
          OFFSET 12.7242 0 0
          CHANNELS 3 Zrotation Xrotation Yrotation
          End Site
          {
            OFFSET 0 0 0
          }
        }
      }
    }
  }
  JOINT Spine
  {
    OFFSET 0.165834 0.87714 6.61349
    CHANNELS 3 Zrotation Xrotation Yrotation
    JOINT Spine1
    {
      OFFSET 7.38963 1.71661e-005 0
      CHANNELS 3 Zrotation Xrotation Yrotation
      JOINT Spine2
      {
        OFFSET 11.9445 1.14441e-005 0
        CHANNELS 3 Zrotation Xrotation Yrotation
        JOINT Spine3
        {
          OFFSET 14.7254 4.19617e-005 0
          CHANNELS 3 Zrotation Xrotation Yrotation
          JOINT Spine4
          {
            OFFSET 10.9679 0 0
            CHANNELS 3 Zrotation Xrotation Yrotation
            JOINT RightShoulder
            {
              OFFSET 2.46616 -1.6653 3.69651
              CHANNELS 3 Zrotation Xrotation Yrotation
              JOINT RightArm
              {
                OFFSET 13.0012 0 0
                CHANNELS 3 Zrotation Xrotation Yrotation
                JOINT RightForeArm
                {
                  OFFSET 28.7848 1.52588e-005 0
                  CHANNELS 3 Zrotation Xrotation Yrotation
                  JOINT RightHand
                  {
                    OFFSET 26.5688 1.52588e-005 0
                    CHANNELS 3 Zrotation Xrotation Yrotation
                    End Site
                    {
                      OFFSET 0 0 0
                    }
                  }
                }
              }
            }
            JOINT LeftShoulder
            {
              OFFSET 2.38034 -1.29275 -3.7523
              CHANNELS 3 Zrotation Xrotation Yrotation
              JOINT LeftArm
              {
                OFFSET 16.3182 6.10351e-005 0
                CHANNELS 3 Zrotation Xrotation Yrotation
                JOINT LeftForeArm
                {
                  OFFSET 27.0901 0 0
                  CHANNELS 3 Zrotation Xrotation Yrotation
                  JOINT LeftHand
                  {
                    OFFSET 24.5451 1.52588e-005 0
                    CHANNELS 3 Zrotation Xrotation Yrotation
                    End Site
                    {
                      OFFSET 0 0 0
                    }
                  }
                }
              }
            }
            JOINT Neck
            {
              OFFSET 5.0226 -0.0266342 0
              CHANNELS 3 Zrotation Xrotation Yrotation
              JOINT Head
              {
                OFFSET 6.69363 2.86102e-005 0
                CHANNELS 3 Zrotation Xrotation Yrotation
                End Site
                {
                  OFFSET 0 0 0
                }
              }
            }
          }
        }
      }
    }
  }
}
MOTION
Frames:	10
Frame Time:	0.0416667
-52.9124 93.3553 -196.297 82.7779 -83.943 80.568 -173.685 -3.52021 87.8845 -30.2219 25.1437 1.69073 66.3762 7.59842 8.38162 47.9222 14.9174 -0.309914 176.167 25.0459 90.5594 -7.50774 -1.80961 -1.40595 61.5734 -1.73154 -0.94095 46.9181 0.157308 -7.91016 -1.38065 7.51816 -89.9274 11.8443 -2.71137 0.433423 0.176009 -2.68966 0.552412 -22.3816 -2.7162 -0.40212 -2.36891 -2.71619 -0.402108 93.495 -56.4163 -94.4355 21.1262 -6.31715 20.0875 -9.68019 -32.974 -39.2733 2.12487 -0.506665 4.90245 -100.968 -49.6738 62.4843 -6.77176 6.923 -6.85778 8.1018 4.31521 -54.8447 15.4299 1.00753 2.63096 7.17587 2.13272 -1.02104 0.099512 2.43136 4.28499 
-52.8906 92.7741 -186.443 95.2327 -84.4182 96.6836 -173.316 -3.89971 92.5407 -39.7035 23.3101 3.52767 56.5582 -1.15751 -0.742224 53.1805 20.5657 6.24269 176.5 26.6496 93.8738 -22.8551 0.875234 -0.373692 58.9353 -0.82636 -0.390095 40.529 0.351005 -6.4884 -1.32605 7.55306 -90.5107 11.7663 -2.87726 -0.713975 0.0984763 -2.90589 -0.586548 -22.4565 -2.52959 -1.54615 -2.44381 -2.52959 -1.54615 92.9803 -56.2846 -95.193 19.5971 -5.10587 19.567 -9.74072 -34.5293 -37.2592 2.76636 -0.488395 5.84703 -102.498 -51.8708 61.1522 -8.11554 6.26629 -3.94173 7.78472 4.05286 -54.23 15.7125 1.07605 2.95192 7.11233 2.74766 1.22464 -0.614097 2.61619 4.3167 
-53.4603 92.4105 -177.647 116.027 -85.7573 118.398 -172.961 2.51034 94.8756 -53.5556 20.4406 2.64733 39.897 -11.6781 -8.42802 40.0842 9.78888 14.2105 176.487 25.9661 96.2317 -35.0413 1.30711 -0.257348 65.929 -2.63942 -1.42653 31.1412 0.251366 -3.04571 -1.0325 7.5442 -90.6049 11.7764 -2.33761 -0.958633 0.107263 -2.37754 -0.854783 -22.4376 -1.94144 -1.61701 -2.42491 -1.94144 -1.61701 92.3946 -55.7001 -96.1294 20.4069 -4.48333 16.8186 -8.78114 -34.2977 -35.6621 2.82032 -0.473133 6.01299 -103.399 -52.5767 60.1691 -11.1576 8.55479 -0.651599 6.63921 4.97108 -50.0376 15.8977 1.2256 3.80119 7.13391 2.56434 2.14127 -2.0143 2.19553 2.5635 
-53.8585 93.8181 -169.259 128.791 -86.0996 131.037 -172.628 12.3631 94.5358 -63.1218 13.494 1.68225 44.1365 -8.63846 -2.10126 39.3727 8.84269 10.2252 176.782 19.716 96.8505 -35.3195 1.0804 -0.725539 69.8039 -3.88203 -2.01867 27.7462 0.132441 -2.47092 -0.643351 7.54789 -90.497 11.7743 -1.51297 -0.831043 0.104041 -1.54808 -0.763651 -22.4339 -1.19328 -1.24735 -2.42128 -1.19328 -1.24735 92.2304 -54.0676 -96.6492 23.2974 -4.88416 12.9776 -9.35134 -30.6809 -39.1532 1.39667 -0.499839 5.34431 -104.72 -53.5138 58.7202 -12.9521 11.8468 0.857676 4.33599 7.01185 -41.7472 13.54 0.885472 2.61602 6.89566 1.52028 2.18736 -2.12712 1.15095 1.90383 
-54.5709 95.5714 -161.272 158.481 -87.175 158.549 -171.668 18.8194 91.883 -57.441 11.9697 0.0232908 50.3076 -4.4644 -1.86939 42.2542 11.7681 12.4652 177.507 12.3552 96.0265 -31.4227 0.655391 -2.47758 71.0993 -4.31869 -2.19264 29.6758 0.116713 -1.15921 -0.193479 7.51573 -90.1083 11.8429 -0.435613 -0.169402 0.171998 -0.44265 -0.150078 -22.3634 -0.364573 -0.292492 -2.35073 -0.364566 -0.292496 91.9349 -52.785 -97.3172 24.2366 -7.25688 7.97395 -9.28263 -26.6705 -44.3414 -2.67565 -0.653843 4.23549 -104.619 -53.8535 58.997 -16.838 12.7549 3.91543 2.92243 9.52407 -33.9645 12.5517 0.896354 3.16717 5.56658 0.928703 2.03837 -1.30515 0.620656 1.3718 
-54.6615 96.5164 -153.79 -137.782 -87.0575 -138.581 -171.381 21.4049 90.2485 -39.1589 8.54307 -1.35986 56.6362 -0.296852 -0.73739 42.9629 12.699 14.5935 177.283 6.74888 94.8051 -28.6408 -3.7815 -3.38374 70.5457 -4.23465 -2.16536 33.2334 0.29172 -3.28563 0.292192 7.48171 -89.9087 11.9101 0.624071 0.115047 0.23932 0.628532 0.0874671 -22.2968 0.560636 0.297292 -2.28413 0.56064 0.297294 90.493 -50.3451 -99.9954 23.7488 -8.38097 3.10675 -11.7857 -24.0947 -52.0149 -3.49256 -0.552534 1.12984 -104.375 -54.5256 59.5969 -20.4158 12.2192 8.74302 2.59403 10.8568 -29.4761 9.26686 0.687776 3.23473 5.53586 1.0622 3.33 -1.27236 0.51181 -0.0150763 
-54.1274 96.2785 -146.105 -98.8711 -84.7545 -99.3779 -173.223 18.875 90.5301 -9.12609 6.20606 -0.820364 57.0923 1.35 0.642202 45.5951 15.5947 16.1797 176.493 2.18606 93.8956 -27.0272 -7.0404 -3.6761 72.5481 -5.17496 -2.53993 34.7414 0.33605 -3.10491 0.683649 7.41325 -89.8837 12.0477 1.41412 0.0773553 0.377541 1.41615 0.0150307 -22.1632 1.32547 0.498861 -2.15055 1.32547 0.498847 90.8321 -48.4072 -99.8993 20.9546 -9.76877 -4.5648 -14.048 -23.2033 -57.5976 -4.05215 -0.568128 0.982556 -103.671 -55.7029 61.0084 -22.8644 12.1317 13.0428 2.64041 12.3727 -27.1916 6.47998 0.543722 3.81007 6.6517 1.79682 5.17533 -1.63356 0.857243 -1.438 
-53.4066 95.3759 -138.107 -90.0877 -81.5844 -89.6125 -174.002 24.1034 91.7905 -4.40855 3.90985 0.0800166 62.8238 2.01559 0.28064 47.1137 17.1176 16.0461 176.137 -1.48829 93.0996 -27.8842 -10.6725 -4.50501 72.7006 -5.67585 -2.78621 39.5789 0.411601 -4.33642 1.08513 7.4181 -89.949 12.041 2.18145 -0.136504 0.371889 2.17332 -0.23244 -22.1774 2.12158 0.52572 -2.16476 2.12157 0.52572 90.4499 -46.734 -100.891 18.4198 -8.31002 -10.2919 -16.5121 -23.5592 -61.1967 -6.45037 -0.631834 0.821575 -103.084 -56.7251 62.1792 -24.4645 12.0564 16.2291 2.02868 12.5218 -25.3791 6.65731 0.541139 3.59229 7.77908 2.3997 6.38709 -2.10024 1.17805 -1.92327 
-52.5954 94.1385 -129.421 -92.3201 -79.8721 -92.3556 -173.448 23.8269 90.9253 -6.02767 5.23504 -1.02535 58.7689 0.518168 -1.45586 45.8196 15.7287 15.799 176.411 -3.34306 90.8845 -35.7787 -13.2248 -6.93365 68.6424 -4.12263 -2.17916 49.8774 0.318449 -5.97705 1.32363 7.41491 -89.7983 12.0453 2.72667 0.103489 0.37724 2.72858 -0.0167135 -22.1789 2.56943 0.918728 -2.16624 2.56943 0.918727 89.6773 -47.2255 -101.997 17.3047 -6.59009 -10.971 -17.4806 -22.4038 -62.3338 -7.70556 -0.657794 0.713886 -101.823 -56.7772 63.8945 -25.5954 11.3709 18.3829 1.96318 13.1139 -23.7626 6.86858 0.701892 5.42458 6.76585 2.24139 5.36713 -1.93409 1.25613 -1.55204 
-52.0041 93.4379 -119.858 -99.771 -80.6343 -103.367 -172.718 23.3732 86.8862 -16.477 9.24042 -2.44863 54.1059 -2.21381 -0.137188 38.7278 8.08538 5.56558 176.121 1.17167 87.7974 -48.8783 -11.2117 -7.86931 54.6446 0.819836 0.841067 50.5717 0.871838 -0.823765 1.22757 7.41394 -89.3373 12.0379 2.75345 1.02154 0.369573 2.79575 0.899283 -22.1804 2.31912 1.80212 -2.16774 2.31913 1.80213 89.9856 -49.1442 -101.048 17.0747 -6.74367 -7.52804 -16.6465 -22.3287 -61.5533 -9.38174 -0.799999 1.96965 -101.462 -56.8957 64.4213 -25.2901 11.1323 19.2591 2.10917 14.6642 -22.3362 5.95794 0.633105 5.54069 5.44168 1.86378 4.31851 -2.53344 1.12605 -1.61964 
